<?xml version="1.0" standalone="no"?>
<!DOCTYPE svg PUBLIC "-//W3C//DTD SVG 20010904//EN"
 "http://www.w3.org/TR/2001/REC-SVG-20010904/DTD/svg10.dtd">
<svg version="1.0" xmlns="http://www.w3.org/2000/svg"
 width="1280.000000pt" height="717.000000pt" viewBox="0 0 1280.000000 717.000000"
 preserveAspectRatio="xMidYMid meet">
<metadata>
Created by potrace 1.15, written by Peter Selinger 2001-2017
</metadata>
<g transform="translate(0.000000,717.000000) scale(0.100000,-0.100000)"
fill="#000000" stroke="none">
<path d="M6185 7160 c-458 -52 -886 -260 -1215 -590 -310 -310 -513 -701 -592
-1140 -30 -167 -36 -465 -13 -636 65 -481 269 -897 605 -1234 296 -297 644
-484 1051 -565 178 -36 455 -45 635 -21 621 82 1161 440 1493 990 289 478 376
1077 236 1631 -203 810 -854 1415 -1665 1550 -113 19 -423 27 -535 15z m380
-995 c430 -70 760 -394 872 -857 28 -115 25 -393 -6 -511 -74 -285 -237 -521
-463 -670 -412 -272 -944 -218 -1296 132 -166 165 -277 379 -318 616 -21 120
-14 347 15 456 150 573 652 923 1196 834z"/>
<path d="M920 6149 c-388 -512 -730 -971 -762 -1020 -114 -180 -164 -355 -154
-539 6 -124 25 -200 73 -295 85 -171 248 -308 448 -377 180 -62 169 -61 903
-65 l672 -4 0 -380 0 -379 500 0 500 0 0 380 0 380 465 0 465 0 0 500 0 500
-465 0 -465 0 0 1115 0 1115 -737 0 -738 0 -705 -931z m1180 -704 l0 -595
-450 0 -451 0 448 595 c246 327 449 595 451 595 1 0 2 -268 2 -595z"/>
<path d="M9665 6116 c-625 -825 -738 -979 -786 -1073 -67 -131 -100 -246 -107
-371 -21 -396 220 -688 657 -795 82 -19 119 -21 764 -24 l677 -4 0 -380 0
-379 500 0 500 0 0 380 0 380 465 0 465 0 0 500 0 500 -465 0 -465 0 0 1115 0
1115 -738 0 -737 0 -730 -964z m1202 -1263 c-2 -2 -205 -2 -450 -1 l-446 3
447 593 447 593 3 -592 c1 -326 1 -594 -1 -596z"/>
<path d="M3405 1515 c-5 -2 -22 -6 -36 -9 -31 -7 -44 -40 -23 -61 18 -17 192
-10 213 10 18 17 6 51 -22 59 -23 6 -115 7 -132 1z"/>
<path d="M4696 1504 c-3 -9 -6 -57 -6 -109 0 -106 11 -127 55 -107 24 11 25
15 25 110 0 63 -4 102 -12 110 -17 17 -55 15 -62 -4z"/>
<path d="M5360 1507 c-30 -7 -61 -16 -67 -20 -16 -10 -17 -53 -3 -62 14 -9
191 16 208 28 7 6 12 22 10 36 -3 23 -8 26 -48 28 -25 1 -70 -4 -100 -10z"/>
<path d="M6062 1508 c-19 -19 -16 -193 4 -212 19 -19 36 -20 52 -4 13 13 17
183 6 212 -7 19 -45 21 -62 4z"/>
<path d="M6713 1504 c-68 -16 -89 -42 -60 -71 13 -14 26 -14 99 -3 110 16 116
18 123 41 16 49 -43 61 -162 33z"/>
<path d="M7850 1506 c-30 -6 -61 -15 -67 -19 -16 -10 -17 -53 -2 -62 12 -8
176 14 202 27 9 5 17 17 17 26 0 43 -45 51 -150 28z"/>
<path d="M9227 1513 c-13 -12 -8 -208 5 -221 16 -16 33 -15 52 4 19 18 23 173
6 205 -10 18 -50 26 -63 12z"/>
<path d="M9890 1507 c-30 -7 -61 -16 -67 -20 -16 -10 -17 -53 -2 -62 12 -8
176 14 202 27 12 6 17 18 15 36 -3 25 -7 27 -48 29 -25 1 -70 -4 -100 -10z"/>
<path d="M8098 1499 c-21 -12 -24 -42 -5 -56 6 -6 49 -23 94 -38 68 -23 85
-26 98 -15 18 15 20 44 3 57 -14 11 -108 47 -148 56 -14 3 -33 1 -42 -4z"/>
<path d="M3657 1483 c-12 -11 -8 -51 6 -60 6 -4 46 -22 87 -40 75 -33 103 -35
114 -7 11 29 -14 52 -88 83 -74 31 -106 37 -119 24z"/>
<path d="M3158 1433 c-105 -55 -130 -89 -86 -117 14 -8 24 -7 45 7 16 10 54
31 86 47 46 24 57 35 57 55 0 44 -29 47 -102 8z"/>
<path d="M5081 1373 c-73 -58 -88 -87 -56 -113 20 -16 31 -11 114 56 70 56 83
78 59 102 -21 21 -44 13 -117 -45z"/>
<path d="M6448 1377 c-70 -53 -89 -86 -68 -112 20 -24 37 -18 103 35 110 88
109 87 81 114 -24 25 -44 19 -116 -37z"/>
<path d="M7605 1404 c-95 -63 -126 -112 -86 -134 16 -8 33 -1 95 43 71 49 96
82 81 106 -11 19 -49 12 -90 -15z"/>
<path d="M9612 1375 c-38 -30 -72 -61 -75 -70 -15 -37 29 -68 62 -43 131 97
157 128 129 156 -21 21 -45 13 -116 -43z"/>
<path d="M8367 1363 c-17 -17 -2 -46 58 -107 48 -51 70 -67 87 -64 16 2 24 11
26 28 2 19 -11 39 -59 88 -58 57 -93 75 -112 55z"/>
<path d="M3928 1329 c-30 -17 -20 -41 51 -118 62 -66 70 -72 90 -62 36 20 26
53 -40 125 -62 68 -71 73 -101 55z"/>
<path d="M2919 1233 c-77 -103 -87 -133 -49 -153 23 -12 32 -4 98 89 49 69 53
104 12 109 -20 2 -33 -7 -61 -45z"/>
<path d="M7386 1178 c-56 -98 -70 -136 -56 -152 15 -19 44 -21 58 -3 6 6 28
46 50 87 43 82 43 110 -3 110 -18 0 -31 -11 -49 -42z"/>
<path d="M4897 1178 c-14 -18 -39 -59 -56 -90 l-32 -57 21 -21 c12 -12 27 -20
33 -17 16 5 117 158 117 178 0 20 -20 39 -41 39 -10 0 -29 -15 -42 -32z"/>
<path d="M6262 1181 c-40 -55 -82 -132 -82 -151 0 -21 34 -45 50 -35 6 4 33
40 61 81 57 85 63 127 19 132 -19 2 -32 -5 -48 -27z"/>
<path d="M9417 1164 c-18 -25 -44 -66 -58 -91 l-24 -44 23 -19 c13 -11 29 -17
36 -14 17 6 116 158 116 176 0 19 -21 38 -42 38 -10 0 -33 -21 -51 -46z"/>
<path d="M4696 1184 c-3 -9 -6 -57 -6 -109 0 -106 11 -127 55 -107 24 11 25
15 25 110 0 63 -4 102 -12 110 -17 17 -55 15 -62 -4z"/>
<path d="M6062 1188 c-19 -19 -16 -193 4 -212 19 -19 36 -20 52 -4 13 13 17
183 6 212 -7 19 -45 21 -62 4z"/>
<path d="M9227 1193 c-13 -12 -8 -208 5 -221 16 -16 33 -15 52 4 19 18 23 173
6 205 -10 18 -50 26 -63 12z"/>
<path d="M8560 1116 c-14 -18 -13 -20 27 -126 22 -56 34 -76 49 -78 36 -5 48
21 34 75 -28 113 -76 169 -110 129z"/>
<path d="M4105 1074 c-9 -10 -14 -24 -11 -33 2 -9 12 -45 22 -81 22 -88 27
-95 60 -95 28 0 29 1 27 47 -2 80 -43 178 -73 178 -5 0 -16 -7 -25 -16z"/>
<path d="M2797 988 c-8 -13 -20 -47 -26 -76 -27 -129 -12 -144 135 -140 l99 3
0 30 0 30 -84 3 -83 3 8 47 c15 88 12 117 -13 120 -14 2 -27 -5 -36 -20z"/>
<path d="M7302 932 c-33 -21 -46 -198 -16 -223 24 -19 48 1 55 47 17 104 18
154 3 169 -17 17 -24 18 -42 7z"/>
<path d="M4749 907 c-6 -13 -20 -27 -32 -32 -20 -9 -22 -18 -25 -112 -2 -94
-1 -103 18 -113 35 -19 60 3 60 54 0 23 11 70 25 104 29 71 32 107 9 116 -29
11 -44 6 -55 -17z"/>
<path d="M6115 910 c-3 -11 -18 -25 -33 -32 -26 -13 -27 -17 -30 -98 -3 -98 2
-125 24 -134 31 -12 54 12 54 55 0 22 14 73 31 114 24 60 28 78 19 94 -14 27
-56 28 -65 1z"/>
<path d="M9275 906 c-9 -13 -25 -26 -35 -29 -18 -5 -20 -14 -20 -109 0 -68 4
-108 12 -116 31 -31 68 2 68 61 0 23 12 69 25 102 28 68 30 86 13 103 -19 19
-46 14 -63 -12z"/>
<path d="M3101 826 c-9 -11 -10 -20 -1 -35 10 -19 20 -21 109 -21 106 0 129
10 116 50 -6 18 -14 20 -109 20 -78 0 -107 -4 -115 -14z"/>
<path d="M3417 833 c-13 -12 -7 -51 9 -57 9 -3 55 -6 104 -6 94 0 117 11 105
50 -6 18 -14 20 -109 20 -56 0 -106 -3 -109 -7z"/>
<path d="M3727 833 c-4 -3 -7 -17 -7 -29 0 -30 22 -36 129 -32 88 3 112 16 98
52 -5 13 -23 16 -110 16 -57 0 -107 -3 -110 -7z"/>
<path d="M4035 820 c-12 -37 11 -50 91 -50 53 0 77 4 88 16 37 37 9 54 -90 54
-75 0 -83 -2 -89 -20z"/>
<path d="M8632 813 c-10 -19 -22 -210 -15 -230 6 -18 48 -16 63 2 9 11 14 53
14 128 l1 112 -27 3 c-18 2 -30 -3 -36 -15z"/>
<path d="M2771 687 c-9 -12 -9 -30 3 -83 22 -105 31 -124 61 -124 14 0 28 7
32 16 6 16 -22 156 -36 184 -11 20 -45 24 -60 7z"/>
<path d="M7305 617 c-14 -11 -17 -22 -12 -56 8 -61 57 -156 81 -156 38 0 41
28 12 116 -37 111 -45 121 -81 96z"/>
<path d="M4701 546 c-8 -9 -11 -48 -9 -111 2 -80 6 -100 21 -109 12 -8 22 -8
35 0 14 9 18 29 20 109 3 101 -4 125 -38 125 -10 0 -23 -6 -29 -14z"/>
<path d="M6062 548 c-15 -15 -16 -181 -2 -209 12 -21 40 -25 58 -7 8 8 12 47
12 108 0 98 -7 120 -40 120 -9 0 -21 -5 -28 -12z"/>
<path d="M9227 553 c-13 -12 -8 -208 5 -221 16 -16 33 -15 52 4 19 18 23 173
6 205 -10 18 -50 26 -63 12z"/>
<path d="M8572 478 c-5 -7 -21 -36 -36 -65 -14 -28 -30 -54 -36 -58 -15 -9
-12 -51 5 -65 25 -21 51 -1 94 75 32 56 42 81 37 100 -7 28 -45 35 -64 13z"/>
<path d="M2877 403 c-23 -22 10 -91 76 -160 35 -38 62 -42 77 -13 13 25 9 32
-101 168 -11 13 -41 16 -52 5z"/>
<path d="M4025 363 c-15 -21 -41 -52 -57 -69 -32 -35 -35 -70 -6 -88 20 -12
58 19 115 96 41 56 42 91 2 96 -20 2 -32 -5 -54 -35z"/>
<path d="M7435 336 c-27 -20 -13 -53 48 -120 46 -48 59 -57 83 -54 48 5 42 36
-22 106 -68 76 -85 86 -109 68z"/>
<path d="M4701 226 c-8 -9 -11 -48 -9 -111 2 -80 6 -100 21 -109 12 -8 22 -8
35 0 14 9 18 29 20 109 3 101 -4 125 -38 125 -10 0 -23 -6 -29 -14z"/>
<path d="M6060 220 c-6 -11 -10 -60 -8 -111 2 -75 6 -94 21 -103 12 -8 22 -8
35 0 14 9 18 29 20 109 3 101 -4 125 -39 125 -10 0 -23 -9 -29 -20z"/>
<path d="M8350 205 c-98 -74 -106 -82 -94 -102 19 -31 50 -26 111 15 79 54
100 78 87 100 -18 28 -56 23 -104 -13z"/>
<path d="M9232 228 c-8 -8 -12 -48 -12 -115 l0 -103 27 -6 c41 -11 53 15 53
114 0 46 -5 92 -10 103 -12 21 -40 25 -58 7z"/>
<path d="M3092 178 c-32 -32 -1 -66 102 -114 67 -30 96 -26 96 15 0 23 -7 31
-42 47 -24 10 -60 28 -80 41 -42 26 -59 28 -76 11z"/>
<path d="M3760 139 c-66 -34 -75 -42 -75 -66 0 -42 37 -41 125 4 68 35 75 41
75 68 0 43 -33 42 -125 -6z"/>
<path d="M7666 135 c-9 -9 -16 -20 -16 -25 0 -19 46 -50 103 -70 72 -24 100
-25 117 -5 23 28 2 49 -77 77 -43 15 -85 29 -94 33 -9 3 -24 -1 -33 -10z"/>
<path d="M8135 94 c-6 -2 -43 -7 -84 -12 -81 -8 -106 -26 -85 -59 9 -14 25
-18 70 -17 96 1 133 12 147 41 9 21 8 27 -8 39 -20 15 -23 15 -40 8z"/>
<path d="M3382 68 c-18 -18 -14 -46 7 -58 11 -5 58 -10 104 -10 94 0 114 11
103 55 -6 25 -8 25 -104 25 -63 0 -102 -4 -110 -12z"/>
</g>
</svg>
